<svg fill="none" height="24" viewBox="0 0 24 24" width="24" xmlns="http://www.w3.org/2000/svg"><path d="m7.2 21c-1.12011 0-1.68016 0-2.10798-.218-.37633-.1917-.68229-.4977-.87403-.874-.21799-.4278-.21799-.9879-.21799-2.108v-11.6c0-1.12011 0-1.68016.21799-2.10798.19174-.37633.4977-.68229.87403-.87403.42782-.21799.98788-.21799 2.10798-.21799h9.6c1.1201 0 1.6802 0 2.108.21799.3763.19174.6823.4977.874.87403.218.42782.218.98788.218 2.10798v.8m-12 0h6m-6 8h1m-1-4h4m-.8046 9.8945 1.3148-.2598c.7095-.1402 1.0642-.2103 1.395-.3395.2936-.1146.5726-.2635.8313-.4436.2914-.203.5471-.4586 1.0584-.97l5.1485-5.1484c.6872-.6873.6872-1.8016 0-2.4888-.6873-.6873-1.8016-.6873-2.4888 0l-5.2364 5.2364c-.4792.4792-.7188.7188-.9123.9904-.1718.2411-.3163.5005-.4308.7735-.129.3075-.2065.6373-.3616 1.297z" stroke="#000" stroke-linecap="round" stroke-linejoin="round" stroke-width="2"/></svg>